<svg id="Layer_1" data-name="Layer 1" xmlns="http://www.w3.org/2000/svg" viewBox="0 0 623.75 643.09"><defs><style>.cls-1{fill:#005480}.cls-3{fill:#fff}</style></defs><path class="cls-1" d="M827.42 466.1a9.94 9.94 0 0 1-5.82-1.88L522.17 249.46l-292.56 214.7A10 10 0 0 1 217.77 448l298.41-219a10 10 0 0 1 11.75-.06L833.26 448a10 10 0 0 1-5.84 18.13z" transform="translate(-213.69 -227.11)"/><path d="M719.7 453.44a46.34 46.34 0 0 0 .74-8.18 42.59 42.59 0 0 0-6.61-23v-.36l2.17-73.65v-.87c0-18.52-14.22-33-32.37-33a35.19 35.19 0 0 0-7.32.79l-14.2 3a36.27 36.27 0 0 0-9.69 3.56c-.93-.07-1.86-.13-2.8-.13a35.84 35.84 0 0 0-7.31.78l-12.87 2.74a36.55 36.55 0 0 0-24.7 18.68l-.16.3-.16.31-4.53 9-.09-.14-.3-.43a33.86 33.86 0 0 0-27.89-14.65 36.17 36.17 0 0 0-7.51.8l-12.87 2.73a35.89 35.89 0 0 0-7.64 2.54h-.58a34.66 34.66 0 0 0-7.28.78l-66.66 14.17a34.9 34.9 0 0 0-13.89 6.33 33.38 33.38 0 0 0-7.87-.93 35.48 35.48 0 0 0-7.29.77l-11.54 2.46a34.28 34.28 0 0 0-25.11 21.28A32.28 32.28 0 0 0 379.64 379a34.73 34.73 0 0 0-7.28.78l-11.55 2.45a34.28 34.28 0 0 0-27.4 33.75v108.2a35 35 0 0 0 .39 5.16 61.75 61.75 0 0 0-9.56-.74 71.66 71.66 0 0 0-14.93 1.64A66.11 66.11 0 0 0 295 535l-.9.42-.87.47A34.9 34.9 0 0 0 274.82 567v10.2c0 18.27 14 32.57 31.83 32.57a33.13 33.13 0 0 0 10.3-1.66 61.8 61.8 0 0 0 37.26 12.47 71.49 71.49 0 0 0 14.93-1.58c17.76-3.77 32.77-13.18 45.78-28.72a61.21 61.21 0 0 0 34 10.22 72.24 72.24 0 0 0 14.93-1.63c17.76-3.77 32.77-13.18 45.78-28.72a61.21 61.21 0 0 0 34 10.22 72.24 72.24 0 0 0 14.93-1.63c17.76-3.77 32.77-13.18 45.78-28.72a61.21 61.21 0 0 0 34 10.22 72.31 72.31 0 0 0 14.93-1.63c18.87-4 34.63-14.38 48.19-31.7.33-.42.64-.8.91-1.13 18.4-.24 32.74-14.92 32.74-33.61v-10.28a33.26 33.26 0 0 0-15.41-28.45z" transform="translate(-213.69 -227.11)" fill="#14c8f6"/><path class="cls-3" d="M434.72 397.17l11.55-2.45c2.31-.49 3.63.55 3.63 2.86v108.23a4.26 4.26 0 0 1-3.63 4.41l-11.55 2.45c-2.31.49-3.63-.55-3.63-2.86v-47.52l-48.84 10.39v47.51a4.24 4.24 0 0 1-3.63 4.4l-11.55 2.46c-2.31.49-3.63-.55-3.63-2.86V416a4.25 4.25 0 0 1 3.63-4.41l11.55-2.45c2.31-.49 3.63.55 3.63 2.86v42.9l48.84-10.39v-42.93a4.26 4.26 0 0 1 3.63-4.41zM471.67 501.18V393a4.24 4.24 0 0 1 3.64-4.4L542 374.38c2.31-.49 3.63.55 3.63 2.86v10.56a4.24 4.24 0 0 1-3.63 4.4l-51.48 10.94v29.7l41.55-8.84c2.31-.49 3.63.55 3.63 2.86v10.56a4.24 4.24 0 0 1-3.63 4.4l-41.58 8.84V483L542 472.05c2.31-.49 3.63.55 3.63 2.86v10.56a4.24 4.24 0 0 1-3.63 4.4L475.31 504c-2.31.53-3.64-.51-3.64-2.82zM635.68 354.46l12.87-2.74c2.81-.59 3.8 1 2.48 3.77l-38.61 76v39.76a4.24 4.24 0 0 1-3.63 4.4l-11.55 2.46c-2.31.49-3.63-.55-3.63-2.86V435.5L555 375.9c-1.32-2.2-.33-4.22 2.47-4.82l12.87-2.73a4 4 0 0 1 4.46 1.52L603 414l28.22-56.16a6.34 6.34 0 0 1 4.46-3.38zM660.43 451.66c0-8.25 6.77-16.45 15-18.21s15 3.58 15 11.83-6.76 16.45-15 18.2-15-3.57-15-11.82zm6.6-26.81l-2.14-73a4 4 0 0 1 3.46-4.37l14.19-3c2.31-.49 3.47.42 3.47 2.89l-2.15 73.88a4.3 4.3 0 0 1-3.79 4.44l-9.24 2c-2.31.47-3.83-.37-3.83-2.84zM702.31 478.36a30.92 30.92 0 0 0-7.92.7c-11.39 2.42-21.12 8.45-30.86 20.91-6.43 8.13-10.4 11.12-16.5 12.42s-10.07 0-16.5-5.41c-9.74-8.32-19.47-10.21-30.86-7.79-11.36 2.43-21.08 8.46-30.8 20.9-6.43 8.13-10.39 11.12-16.5 12.42s-10.06 0-16.5-5.41c-9.73-8.32-19.47-10.21-30.85-7.79h-.06c-11.36 2.43-21.08 8.46-30.8 20.9-6.43 8.13-10.39 11.12-16.5 12.42s-10.06 0-16.5-5.4c-9.73-8.33-19.47-10.22-30.85-7.8h-.06c-11.36 2.43-21.08 8.46-30.8 20.9-6.43 8.13-10.39 11.12-16.5 12.42s-10.06 0-16.5-5.4c-9.73-8.33-19.47-10.22-30.85-7.8a36.4 36.4 0 0 0-7.92 2.67 5.06 5.06 0 0 0-2.81 4.72v10.26c0 2.64 1.65 3.28 4.13 1.77a21.08 21.08 0 0 1 6.6-2.56c6.1-1.3 10.06 0 16.5 5.4 9.73 8.33 19.47 10.22 30.85 7.8s21.12-8.45 30.86-20.92c4.33-5.46 7.54-8.6 11-10.47l.28-.15.46-.22a20 20 0 0 1 2.93-1.11l.23-.07c.5-.14 1-.27 1.54-.38.53-.11 1.06-.2 1.58-.28h.22a16.93 16.93 0 0 1 2.92-.13h.73c3.5.38 6.71 2.15 11.05 5.78 9.73 8.33 19.47 10.22 30.85 7.8s21.12-8.45 30.86-20.92c4.33-5.47 7.54-8.6 11-10.47l.28-.15.46-.22a20.33 20.33 0 0 1 2.92-1.11l.24-.07c.5-.14 1-.27 1.54-.38.53-.12 1.06-.21 1.58-.28h.21a17.09 17.09 0 0 1 2.93-.13h.73c3.5.37 6.71 2.15 11.05 5.78 9.73 8.33 19.47 10.22 30.85 7.8s21.12-8.45 30.86-20.92c4.33-5.47 7.54-8.61 11-10.48l.27-.14.46-.22a20.33 20.33 0 0 1 2.92-1.11l.23-.07c.51-.14 1-.27 1.54-.39s1.06-.21 1.59-.28h.19a17.21 17.21 0 0 1 2.94-.13h.74c3.49.38 6.7 2.15 11 5.78 9.74 8.32 19.47 10.22 30.86 7.8s21.12-8.45 30.85-20.92c6.44-8.13 10.4-11.12 16.51-12.41a17.14 17.14 0 0 1 6.59-.25c2.48.46 4.13-.88 4.13-3.52v-10.16c.18-1.98-.65-3.29-2.62-3.53z" transform="translate(-213.69 -227.11)"/><path class="cls-3" d="M603.75 614.4V247.52L326.53 429.55 603.75 614.4zM20 617.16l270.67-187.55L20 247.76v369.4zM308.52 441.58L46.56 623.09h534.17L308.52 441.58z"/><path class="cls-1" d="M837 863c.08-.3.15-.59.21-.9v-.13c.05-.27.09-.55.12-.83a.76.76 0 0 1 0-.15V456.1a10 10 0 0 0-15.33-8.36L522.16 644.58 229.27 447.8a10 10 0 0 0-15.58 8.3v404.1a10 10 0 0 0 10 10h603.75a10.06 10.06 0 0 0 2.34-.29h.08a8.73 8.73 0 0 0 1.06-.33h.08a9.83 9.83 0 0 0 3-1.82l.14-.13c.26-.24.51-.5.75-.77l.07-.07A9.93 9.93 0 0 0 837 863zm-19.58-21.51l-277.2-184.84 277.22-182zM522.21 668.68L794.42 850.2H260.25zM233.69 844.27V474.86l270.67 181.86z" transform="translate(-213.69 -227.11)"/></svg>