<svg id="Layer_1" data-name="Layer 1" xmlns="http://www.w3.org/2000/svg" viewBox="0 0 663.87 618"><defs><style>.cls-1{fill:#005480}.cls-2{fill:#fff}</style></defs><path class="cls-1" d="M383.66 528.41v93.18a35.93 35.93 0 0 1-35.89 35.88h-12.83v21.89a35.93 35.93 0 0 1-35.88 35.89h-12.81v12.8a35.93 35.93 0 0 1-35.89 35.89H227.1a10 10 0 0 1-10-10v-194a106.17 106.17 0 0 1 42.12-84.42l108.61-81.73a10 10 0 1 1 12 16L366 420.2l-94.76 71.3a86.1 86.1 0 0 0-34.14 68.44v184h13.26a15.91 15.91 0 0 0 15.89-15.89v-97.12a10 10 0 0 1 10-10 9.85 9.85 0 0 1 3.92.8 10 10 0 0 1 6.08 9.2v64.32h12.81a15.91 15.91 0 0 0 15.88-15.89V570.23a10 10 0 0 1 20 0v67.24h12.83a15.9 15.9 0 0 0 15.89-15.88v-93.18a10 10 0 0 1 20 0zM881 559.94v194a10 10 0 0 1-10 10h-23.3a35.93 35.93 0 0 1-35.89-35.89v-12.8H799a35.93 35.93 0 0 1-35.89-35.89v-21.89h-12.82a35.93 35.93 0 0 1-35.88-35.88v-93.18a10 10 0 0 1 20 0v93.18a15.89 15.89 0 0 0 15.88 15.88h12.83v-67.24a10 10 0 0 1 20 0v109.13A15.91 15.91 0 0 0 799 695.25h12.8v-64.32a10 10 0 1 1 20 0v97.12a15.91 15.91 0 0 0 15.89 15.89H861v-184a86.11 86.11 0 0 0-34.15-68.44l-93.9-71.26-13.83-10.5a10 10 0 1 1 12.09-15.93l107.7 81.74A106.16 106.16 0 0 1 881 559.94z" transform="translate(-217.1 -221.83)"/><path class="cls-1" d="M688.26 221.83H411.17a48 48 0 0 0-48 47.95v522.1a48 48 0 0 0 48 48h277.09a48 48 0 0 0 48-48v-522.1a48 48 0 0 0-48-47.95zm28 570.05a28 28 0 0 1-28 28H411.17a28 28 0 0 1-28-28v-522.1a28 28 0 0 1 28-27.95h277.09a28 28 0 0 1 28 27.95z" transform="translate(-217.1 -221.83)"/><path class="cls-2" d="M716.21 269.78v522.1a28 28 0 0 1-28 28H411.17a28 28 0 0 1-28-28v-522.1a28 28 0 0 1 28-27.95h277.09a28 28 0 0 1 27.95 27.95z" transform="translate(-217.1 -221.83)"/><circle class="cls-1" cx="549.72" cy="753.94" r="21.52" transform="rotate(-6.79 -1428.273 2473.067)"/><path class="cls-1" d="M594.24 280.1l-89.05.08a10 10 0 0 0 0 20l89.05-.08a10 10 0 0 0 0-20z" transform="translate(-217.1 -221.83)"/><rect x="221.25" y="165.5" width="222.72" height="222.83" rx="33.85" ry="33.85" fill="#14c8f6"/><path class="cls-2" d="M551 415.85l56.9 46.21a5.9 5.9 0 0 1 2.34 4.69l1.33 96.08a3.5 3.5 0 0 1-3.79 3.9l-114.61 1.58a3.49 3.49 0 0 1-3.89-3.79l-1.33-96.08a5.84 5.84 0 0 1 2.21-4.75l55.6-47.77a3.5 3.5 0 0 1 5.24-.07zm-45.2 57.76l.16 11c4.67-3.38 10.41-5 17.92-5.14 17.65-.24 29.49 9.38 33.94 27.84 2.59 10.8 8.78 16.3 18.74 16.17 7.86-.11 13.58-3.86 16.46-10.19l-.57-40.88-43.82-35.74zm87.75 78.29l-.22-16.42c-4.67 3.38-10.42 5-17.93 5.14-16.77.23-28.61-9.39-33.93-27.84-3.12-10.79-9.14-16.3-18.75-16.17-8 .11-13.58 3.86-16.46 10l.64 46.47z" transform="translate(-217.1 -221.83)"/></svg>