<svg id="Layer_1" data-name="Layer 1" xmlns="http://www.w3.org/2000/svg" viewBox="0 0 840.25 492.88"><defs><style>.cls-2{fill:#005480}.cls-3{fill:#fff}</style></defs><path d="M880 634a45.85 45.85 0 0 0 1.73-12.44 42.67 42.67 0 0 0-6.61-23v-.36l2.14-73.62v-.87c0-18.52-14.21-33-32.36-33a36 36 0 0 0-7.33.79l-14.19 3a35.57 35.57 0 0 0-12 4.94 33.71 33.71 0 0 0-5.46-.45 35.39 35.39 0 0 0-7.28.77l-66.67 14.17A34.66 34.66 0 0 0 713.78 524a77.3 77.3 0 0 0-18.44-2.14 107.1 107.1 0 0 0-22.13 2.46 105.64 105.64 0 0 0-51.88 27.12 32.32 32.32 0 0 0-22.18-8.63 34.75 34.75 0 0 0-7.29.78l-11.55 2.45a34.73 34.73 0 0 0-13.88 6.34 33.38 33.38 0 0 0-7.87-.94 34.91 34.91 0 0 0-7.3.78l-11.53 2.45a34.3 34.3 0 0 0-25.23 21.6A33.17 33.17 0 0 0 490.39 566a36.63 36.63 0 0 0-7.59.81l-12.37 2.63A34.28 34.28 0 0 0 443 603.18v108.23a33.55 33.55 0 0 0 4.65 17.22 35 35 0 0 0-7.26 21.57v10.23c0 18.26 14 32.56 31.83 32.56a33.18 33.18 0 0 0 10.3-1.66 61.77 61.77 0 0 0 37.26 12.48 71.66 71.66 0 0 0 14.93-1.64c17.76-3.77 32.77-13.18 45.77-28.72a61.26 61.26 0 0 0 34 10.22 71.47 71.47 0 0 0 14.96-1.67c17.77-3.77 32.78-13.18 45.78-28.72a61.26 61.26 0 0 0 34 10.22 72.15 72.15 0 0 0 14.92-1.63c17.77-3.77 32.78-13.18 45.78-28.72a61.21 61.21 0 0 0 34 10.22 72.24 72.24 0 0 0 14.93-1.63c18.87-4 34.64-14.38 48.19-31.7.34-.43.64-.8.92-1.13 18.39-.24 32.73-14.92 32.73-33.61v-10.19A33.08 33.08 0 0 0 880 634z" transform="translate(-119.97 -310.93)" fill="#14c8f6"/><path class="cls-2" d="M299.61 310.93H130a10 10 0 0 0-10 10v155.62a10 10 0 0 0 10 10h169.61a10 10 0 0 0 10-10V320.93a10 10 0 0 0-10-10zm-159.61 20h149.61v127.44q-2.87-3.18-6.05-6.09c-17.6-16.15-41.9-26.14-68.76-26.14-30.1 0-57 12.55-74.83 32.25z" transform="translate(-119.97 -310.93)"/><path class="cls-3" d="M289.61 330.93v127.44q-2.87-3.18-6.05-6.09c-17.6-16.15-41.9-26.14-68.76-26.14-30.1 0-57 12.55-74.83 32.25V330.93z" transform="translate(-119.97 -310.93)"/><circle class="cls-2" cx="94.82" cy="69.2" r="34.01"/><path class="cls-2" d="M950.22 392.24H389.3a10 10 0 1 0 0 20h560.92a10 10 0 0 0 0-20zM389.3 346.92h560.92a10 10 0 0 0 0-20H389.3a10 10 0 0 0 0 20zM682.26 459h-293a10 10 0 1 0 0 20h293a10 10 0 0 0 0-20z" transform="translate(-119.97 -310.93)"/><path class="cls-3" d="M867.9 661.58a31.41 31.41 0 0 0-7.92.7c-11.39 2.42-21.12 8.45-30.86 20.91-6.43 8.13-10.39 11.12-16.5 12.42s-10.06 0-16.5-5.41c-9.73-8.32-19.47-10.21-30.85-7.79h-.06c-11.36 2.43-21.08 8.46-30.8 20.9-6.43 8.13-10.39 11.12-16.49 12.42s-10.07 0-16.51-5.41c-9.73-8.32-19.46-10.21-30.85-7.79h-.06c-11.36 2.43-21.08 8.46-30.79 20.9-6.44 8.13-10.4 11.12-16.5 12.42s-10.07 0-16.5-5.4c-9.74-8.33-19.47-10.22-30.86-7.8h-.05c-11.37 2.43-21.08 8.46-30.8 20.9-6.44 8.13-10.4 11.12-16.5 12.42s-10.07 0-16.5-5.4c-9.74-8.33-19.47-10.22-30.86-7.8a36.58 36.58 0 0 0-7.92 2.67 5.07 5.07 0 0 0-2.8 4.73v10.23c0 2.64 1.65 3.27 4.12 1.76a21.17 21.17 0 0 1 6.6-2.56c6.11-1.3 10.07 0 16.5 5.4 9.74 8.33 19.47 10.22 30.86 7.8s21.12-8.45 30.85-20.91c4.33-5.47 7.54-8.61 11-10.47l.29-.16.45-.22a20.45 20.45 0 0 1 2.93-1.11l.23-.07c.51-.14 1-.27 1.54-.38.54-.11 1.07-.2 1.59-.28h.2a17.21 17.21 0 0 1 2.94-.13h.73c3.5.38 6.71 2.15 11 5.78 9.74 8.33 19.47 10.22 30.86 7.8s21.12-8.45 30.85-20.91c4.34-5.48 7.55-8.62 11.05-10.48l.26-.15.46-.22a20.45 20.45 0 0 1 2.93-1.11l.23-.07c.51-.14 1-.27 1.54-.38.54-.12 1.07-.21 1.59-.28h.2a17.21 17.21 0 0 1 2.94-.13h.73c3.5.38 6.71 2.15 11 5.78 9.74 8.33 19.47 10.22 30.86 7.8s21.12-8.45 30.85-20.92c4.34-5.48 7.55-8.62 11.06-10.48l.25-.14.46-.22a20 20 0 0 1 2.93-1.11l.23-.07c.5-.14 1-.27 1.54-.38.54-.12 1.07-.21 1.59-.28h.2a17.16 17.16 0 0 1 2.94-.13h.45a2.4 2.4 0 0 1 .28 0c3.49.38 6.71 2.15 11 5.78 9.73 8.33 19.47 10.22 30.85 7.8s21.12-8.45 30.86-20.92c6.43-8.13 10.39-11.11 16.5-12.41a17.19 17.19 0 0 1 6.6-.25c2.47.46 4.12-.88 4.12-3.52v-10.14c.24-1.98-.58-3.29-2.56-3.53zM546 584.07l11.55-2.46c2.31-.49 3.64.55 3.64 2.86v108.24a4.25 4.25 0 0 1-3.64 4.4l-12.37 2.63c-2 .42-3.3 0-4.29-1.56l-49-70.27v79.53a4.24 4.24 0 0 1-3.63 4.4l-11.55 2.45c-2.31.49-3.63-.55-3.63-2.86V603.2a4.24 4.24 0 0 1 3.63-4.4l12.38-2.63c2-.42 3.3 0 4.29 1.56l49 70.1v-79.36a4.24 4.24 0 0 1 3.62-4.4zM583 688.08V579.84a4.24 4.24 0 0 1 3.63-4.4l11.5-2.44c2.31-.5 3.63.54 3.63 2.85v108.23a4.24 4.24 0 0 1-3.63 4.4l-11.55 2.46c-2.31.49-3.58-.55-3.58-2.86zM620.08 626.07c0-35.8 23.76-64.78 59.39-72.35 13.37-2.84 24.92-2.33 33.17 1.53a4.21 4.21 0 0 1 2.14 4v13.69c0 3.13-1.81 4.35-4.29 2.73-8.9-5.54-19.63-6.55-31.68-4-23.76 5.05-39.6 25.24-39.6 50.32s16.17 38.47 40.43 33.32c13.86-3 23.93-8.39 36-20.35 2.48-2.51 4.45-1.78 4.45 1.2v12.7a6.14 6.14 0 0 1-1.64 4.47c-10.24 10.1-22.12 16.25-38.78 19.8-35.83 7.62-59.59-11.26-59.59-47.06zM734.58 655.85V547.61a4.24 4.24 0 0 1 3.63-4.4L804.87 529c2.31-.49 3.63.55 3.63 2.86v10.56a4.24 4.24 0 0 1-3.63 4.4l-51.48 10.98v29.7l41.61-8.84c2.31-.49 3.63.55 3.63 2.86v10.56a4.24 4.24 0 0 1-3.63 4.4l-41.58 8.84v32.34l51.48-10.94c2.31-.49 3.63.55 3.63 2.86v10.56a4.24 4.24 0 0 1-3.63 4.4l-66.66 14.17c-2.34.49-3.66-.55-3.66-2.86zM821.7 627.93c0-8.25 6.76-16.46 15-18.21s15 3.57 15 11.82-6.77 16.46-15 18.21-15-3.57-15-11.82zm6.6-26.82l-2.14-73a4 4 0 0 1 3.46-4.37l14.19-3c2.31-.5 3.46.41 3.46 2.89l-2.14 73.88a4.29 4.29 0 0 1-3.79 4.43l-9.25 2c-2.31.49-3.79-.35-3.79-2.83z" transform="translate(-119.97 -310.93)"/></svg>