<svg width="40" height="40" viewBox="0 0 40 40" fill="none" xmlns="http://www.w3.org/2000/svg">
<circle cx="20" cy="20" r="20" fill="white"/>
<circle cx="20" cy="20" r="19.5" stroke="#198754" stroke-opacity="0.2"/>
<circle cx="20" cy="20" r="17.5" fill="#198754" fill-opacity="0.15"/>
<g clip-path="url(#clip0_28_82)">
<path fill-rule="evenodd" clip-rule="evenodd" d="M11.6665 20H13.5183V26.4815C13.5183 26.9726 13.7134 27.4437 14.0607 27.7909C14.408 28.1382 14.879 28.3333 15.3702 28.3333H24.6294C25.1206 28.3333 25.5916 28.1382 25.9389 27.7909C26.2862 27.4437 26.4813 26.9726 26.4813 26.4815V20H26.4813H28.3332L19.9998 11.6667L11.6665 20Z" fill="white"/>
<path d="M13.5183 20H14.5183C14.5183 19.4477 14.0706 19 13.5183 19V20ZM11.6665 20L10.9594 19.2929C10.6734 19.5789 10.5878 20.009 10.7426 20.3827C10.8974 20.7564 11.262 21 11.6665 21V20ZM14.0607 27.7909L13.3536 28.4981H13.3536L14.0607 27.7909ZM25.9389 27.7909L26.646 28.4981H26.646L25.9389 27.7909ZM26.4813 20V19C25.929 19 25.4813 19.4477 25.4813 20H26.4813ZM28.3332 20V21C28.7376 21 29.1023 20.7564 29.2571 20.3827C29.4118 20.009 29.3263 19.5789 29.0403 19.2929L28.3332 20ZM19.9998 11.6667L20.7069 10.9596C20.3164 10.569 19.6833 10.569 19.2927 10.9596L19.9998 11.6667ZM13.5183 19H11.6665V21H13.5183V19ZM12.5183 20V26.4815H14.5183V20H12.5183ZM12.5183 26.4815C12.5183 27.2378 12.8188 27.9632 13.3536 28.4981L14.7678 27.0838C14.6081 26.9241 14.5183 26.7074 14.5183 26.4815H12.5183ZM13.3536 28.4981C13.8884 29.0329 14.6138 29.3333 15.3702 29.3333V27.3333C15.1442 27.3333 14.9276 27.2436 14.7678 27.0838L13.3536 28.4981ZM15.3702 29.3333H24.6294V27.3333H15.3702V29.3333ZM24.6294 29.3333C25.3858 29.3333 26.1112 29.0329 26.646 28.4981L25.2318 27.0838C25.072 27.2436 24.8553 27.3333 24.6294 27.3333V29.3333ZM26.646 28.4981C27.1808 27.9632 27.4813 27.2378 27.4813 26.4815H25.4813C25.4813 26.7074 25.3915 26.9241 25.2318 27.0838L26.646 28.4981ZM27.4813 26.4815V20H25.4813V26.4815H27.4813ZM26.4813 19H26.4813V21H26.4813V19ZM28.3332 19H26.4813V21H28.3332V19ZM19.2927 12.3738L27.6261 20.7071L29.0403 19.2929L20.7069 10.9596L19.2927 12.3738ZM12.3736 20.7071L20.7069 12.3738L19.2927 10.9596L10.9594 19.2929L12.3736 20.7071Z" fill="white"/>
</g>
<path d="M18 19.6667L19.6667 21.3333L23 18" stroke="#198754" stroke-width="2" stroke-linecap="round" stroke-linejoin="round"/>
<path d="M25 25H40V32.5C40 36.6421 36.6421 40 32.5 40C28.3579 40 25 36.6421 25 32.5V25Z" fill="#198754"/>
<path d="M29 34.8L30.5056 31.7889C30.8741 31.0518 31.9259 31.0518 32.2944 31.7889L32.9056 33.0111C33.2741 33.7482 34.3259 33.7482 34.6944 33.0111L36.2 30M36.2 30L37 31.6M36.2 30H34.6" stroke="white" stroke-linecap="round" stroke-linejoin="round"/>
<defs>
<clipPath id="clip0_28_82">
<rect width="20" height="20" fill="white" transform="translate(10 10)"/>
</clipPath>
</defs>
</svg>
