<svg width="24" height="24" viewBox="0 0 24 24" fill="none" xmlns="http://www.w3.org/2000/svg">
<g clip-path="url(#clip0_135_525)">
<path fill-rule="evenodd" clip-rule="evenodd" d="M12.6949 4.8072V1.39008H16.808V4.8072H12.6949ZM11.3053 4.8072H7.19216V1.39008H11.3053V4.8072ZM2.48432 15.0403H21.5134V22.6099H2.48432V15.0403ZM21.513 13.6512H2.48432V12.6538H2.71568V10.8062H0.868164V12.6538H1.1L1.10048 24H22.903V12.6538H23.132V10.8062H21.285V12.6538H21.5139V13.6512H21.513ZM5.87648 21.9739V15.7392H4.48736V21.9739H5.87648ZM7.87616 15.7392V21.9739H9.26624V15.7392H7.87616ZM11.3053 15.7392V21.9739H12.6949V15.7392H11.3053ZM14.6552 15.7392V21.9739H16.0448V15.7392H14.6552ZM18.0051 15.7392V21.9739H19.3952V15.7392H18.0051ZM18.1981 0H5.80208V13.0085H7.19216V6.1968H11.3053V13.009H12.6949V6.1968H16.808V13.009H18.1981V0Z" fill="#808494"/>
</g>
<defs>
<clipPath id="clip0_135_525">
<rect width="24" height="24" fill="white"/>
</clipPath>
</defs>
</svg>
