<svg width="18" height="17" viewBox="0 0 18 17" fill="none" xmlns="http://www.w3.org/2000/svg">
<path d="M16.2728 6.33333H4.60612V3.83333C4.60612 2.91417 5.35362 2.16667 6.27279 2.16667C7.19195 2.16667 7.93945 2.91417 7.93945 3.83333H9.60612C9.60612 1.995 8.11112 0.5 6.27279 0.5C4.43445 0.5 2.93945 1.995 2.93945 3.83333V6.33333H1.27279C1.05177 6.33333 0.839811 6.42113 0.683531 6.57741C0.52725 6.73369 0.439453 6.94565 0.439453 7.16667V8.83333C0.439453 11.005 1.83445 12.8525 3.77279 13.5417V16.3333H5.43945V13.8333H12.1061V16.3333H13.7728V13.5417C15.7111 12.8525 17.1061 11.005 17.1061 8.83333V7.16667C17.1061 6.94565 17.0183 6.73369 16.862 6.57741C16.7058 6.42113 16.4938 6.33333 16.2728 6.33333ZM15.4395 8.83333C15.4395 10.6717 13.9445 12.1667 12.1061 12.1667H5.43945C3.60112 12.1667 2.10612 10.6717 2.10612 8.83333V8H15.4395V8.83333Z" fill="#198754"/>
</svg>
