<svg width="21" height="20" viewBox="0 0 21 20" fill="none" xmlns="http://www.w3.org/2000/svg">
<path d="M18.2728 8.98317V6.6665C18.2728 5.2915 17.1478 4.1665 15.7728 4.1665H12.4395C11.7978 4.1665 11.2145 4.4165 10.7728 4.8165C10.3311 4.4165 9.74779 4.1665 9.10612 4.1665H5.77279C4.39779 4.1665 3.27279 5.2915 3.27279 6.6665V8.98317C2.76445 9.4415 2.43945 10.0998 2.43945 10.8332V15.8332H4.10612V14.1665H17.4395V15.8332H19.1061V10.8332C19.1061 10.0998 18.7811 9.4415 18.2728 8.98317ZM12.4395 5.83317H15.7728C16.2311 5.83317 16.6061 6.20817 16.6061 6.6665V8.33317H11.6061V6.6665C11.6061 6.20817 11.9811 5.83317 12.4395 5.83317ZM4.93945 6.6665C4.93945 6.20817 5.31445 5.83317 5.77279 5.83317H9.10612C9.56445 5.83317 9.93945 6.20817 9.93945 6.6665V8.33317H4.93945V6.6665ZM4.10612 12.4998V10.8332C4.10612 10.3748 4.48112 9.99984 4.93945 9.99984H16.6061C17.0645 9.99984 17.4395 10.3748 17.4395 10.8332V12.4998H4.10612Z" fill="#198754"/>
</svg>
