<svg width="40" height="41" viewBox="0 0 40 41" fill="none" xmlns="http://www.w3.org/2000/svg">
<circle cx="20" cy="20.5" r="20" fill="white"/>
<circle cx="20" cy="20.5" r="19.5" stroke="#198754" stroke-opacity="0.2"/>
<circle cx="20" cy="20.5" r="17.5" fill="#198754" fill-opacity="0.15"/>
<g clip-path="url(#clip0_27_48)">
<path fill-rule="evenodd" clip-rule="evenodd" d="M11.6665 20.5H13.5183V26.9815C13.5183 27.4726 13.7134 27.9437 14.0607 28.2909C14.408 28.6382 14.879 28.8333 15.3702 28.8333H24.6294C25.1206 28.8333 25.5916 28.6382 25.9389 28.2909C26.2862 27.9437 26.4813 27.4726 26.4813 26.9815V20.5H26.4813H28.3332L19.9998 12.1667L11.6665 20.5Z" fill="white"/>
<path d="M13.5183 20.5H14.5183C14.5183 19.9477 14.0706 19.5 13.5183 19.5V20.5ZM11.6665 20.5L10.9594 19.7929C10.6734 20.0789 10.5878 20.509 10.7426 20.8827C10.8974 21.2564 11.262 21.5 11.6665 21.5V20.5ZM14.0607 28.2909L13.3536 28.9981H13.3536L14.0607 28.2909ZM25.9389 28.2909L26.646 28.9981H26.646L25.9389 28.2909ZM26.4813 20.5V19.5C25.929 19.5 25.4813 19.9477 25.4813 20.5H26.4813ZM28.3332 20.5V21.5C28.7376 21.5 29.1023 21.2564 29.2571 20.8827C29.4118 20.509 29.3263 20.0789 29.0403 19.7929L28.3332 20.5ZM19.9998 12.1667L20.7069 11.4596C20.3164 11.069 19.6833 11.069 19.2927 11.4596L19.9998 12.1667ZM13.5183 19.5H11.6665V21.5H13.5183V19.5ZM12.5183 20.5V26.9815H14.5183V20.5H12.5183ZM12.5183 26.9815C12.5183 27.7378 12.8188 28.4632 13.3536 28.9981L14.7678 27.5838C14.6081 27.4241 14.5183 27.2074 14.5183 26.9815H12.5183ZM13.3536 28.9981C13.8884 29.5329 14.6138 29.8333 15.3702 29.8333V27.8333C15.1442 27.8333 14.9276 27.7436 14.7678 27.5838L13.3536 28.9981ZM15.3702 29.8333H24.6294V27.8333H15.3702V29.8333ZM24.6294 29.8333C25.3858 29.8333 26.1112 29.5329 26.646 28.9981L25.2318 27.5838C25.072 27.7436 24.8553 27.8333 24.6294 27.8333V29.8333ZM26.646 28.9981C27.1808 28.4632 27.4813 27.7378 27.4813 26.9815H25.4813C25.4813 27.2074 25.3915 27.4241 25.2318 27.5838L26.646 28.9981ZM27.4813 26.9815V20.5H25.4813V26.9815H27.4813ZM26.4813 19.5H26.4813V21.5H26.4813V19.5ZM28.3332 19.5H26.4813V21.5H28.3332V19.5ZM19.2927 12.8738L27.6261 21.2071L29.0403 19.7929L20.7069 11.4596L19.2927 12.8738ZM12.3736 21.2071L20.7069 12.8738L19.2927 11.4596L10.9594 19.7929L12.3736 21.2071Z" fill="white"/>
<path d="M17.5 21.7501L19.1667 23.4168L22.5 20.0834" stroke="#198754" stroke-width="2" stroke-linecap="round" stroke-linejoin="round"/>
</g>
<path d="M25 25.5H40V33C40 37.1421 36.6421 40.5 32.5 40.5C28.3579 40.5 25 37.1421 25 33V25.5Z" fill="#198754"/>
<path d="M35.2248 29.7375L32.9332 28.8792C32.6957 28.7917 32.3082 28.7917 32.0707 28.8792L29.779 29.7375C29.3373 29.9042 28.979 30.4208 28.979 30.8917V34.2667C28.979 34.6042 29.1998 35.05 29.4707 35.25L31.7623 36.9625C32.1665 37.2667 32.829 37.2667 33.2332 36.9625L35.5248 35.25C35.7957 35.0458 36.0165 34.6042 36.0165 34.2667V30.8917C36.0207 30.4208 35.6623 29.9042 35.2248 29.7375ZM32.8123 33.3625V34.4583C32.8123 34.6292 32.6707 34.7708 32.4998 34.7708C32.329 34.7708 32.1873 34.6292 32.1873 34.4583V33.3625C31.7665 33.2292 31.4582 32.8375 31.4582 32.375C31.4582 31.8 31.9248 31.3333 32.4998 31.3333C33.0748 31.3333 33.5415 31.8 33.5415 32.375C33.5415 32.8417 33.2332 33.2292 32.8123 33.3625Z" fill="white"/>
<defs>
<clipPath id="clip0_27_48">
<rect width="20" height="20" fill="white" transform="translate(10 10.5)"/>
</clipPath>
</defs>
</svg>
